<svg width="252" height="49" fill="none" xmlns="http://www.w3.org/2000/svg"><path d="M25.599 48h-7.37V26.761L.072 1.1h8.576l13.4 18.961L35.448 1.1h8.308L25.599 26.56V48zm49.634-10.988c3.172 3.305 7.058 4.958 11.658 4.958 4.601 0 8.487-1.653 11.658-4.958 3.172-3.395 4.757-7.549 4.757-12.462 0-4.958-1.585-9.09-4.757-12.395-3.17-3.35-7.057-5.025-11.658-5.025-4.6 0-8.486 1.675-11.658 5.025-3.126 3.26-4.69 7.392-4.69 12.395 0 5.003 1.564 9.157 4.69 12.462zm28.81 4.891c-4.556 4.645-10.273 6.968-17.152 6.968-6.878 0-12.596-2.323-17.152-6.968-4.51-4.735-6.767-10.519-6.767-17.353 0-6.879 2.256-12.64 6.767-17.286C74.295 2.574 80.013.229 86.891.229c6.88 0 12.596 2.345 17.152 7.035 4.556 4.645 6.834 10.407 6.834 17.286 0 6.879-2.278 12.663-6.834 17.353zm56.942 6.968c-6.924 0-12.73-2.278-17.42-6.834-4.646-4.645-6.968-10.474-6.968-17.487 0-7.057 2.345-12.864 7.035-17.42 4.645-4.6 10.519-6.901 17.621-6.901 5.717 0 10.541 1.34 14.472 4.02v7.303c-4.288-2.948-8.956-4.422-14.003-4.422-5.137 0-9.336 1.63-12.596 4.891-3.306 3.305-4.958 7.504-4.958 12.596 0 5.181 1.608 9.38 4.824 12.596 3.305 3.171 7.303 4.757 11.993 4.757 4.779 0 8.553-1.318 11.323-3.953V20.932h7.37v20.1c-1.966 2.323-4.623 4.221-7.973 5.695-3.306 1.43-6.879 2.144-10.72 2.144zM211.061 48h-7.839L223.724.832h7.102L251.328 48h-7.906l-5.092-11.658h-22.244L211.061 48zm16.147-37.855l-8.576 19.698h17.152l-8.576-19.698z" fill="#fff"/></svg>