<svg width="575" height="105" fill="none" xmlns="http://www.w3.org/2000/svg"><path d="M55.168 103V56.92L94.192 2.2H76.336l-28.8 40.752L18.736 2.2H.304l39.024 55.152V103h15.84zm118.197-23.616c-6.768-7.2-10.08-16.128-10.08-26.784 0-10.656 3.312-19.584 10.08-26.64 6.768-7.2 15.12-10.8 25.056-10.8 9.936 0 18.288 3.6 25.056 10.8 6.768 7.056 10.224 15.984 10.224 26.64s-3.456 19.584-10.224 26.784c-6.768 7.056-15.12 10.656-25.056 10.656-9.936 0-18.288-3.6-25.056-10.656zm61.92 10.512c9.792-10.08 14.688-22.464 14.688-37.296s-4.896-27.216-14.688-37.152C225.493 5.368 213.253.328 198.421.328c-14.832 0-27.072 5.04-36.864 15.12-9.648 9.936-14.544 22.32-14.544 37.152s4.896 27.216 14.544 37.296c9.792 9.936 22.032 14.976 36.864 14.976 14.832 0 27.072-5.04 36.864-14.976zm133.901 14.976c16.848 0 31.968-7.056 40.176-16.848v-43.2h-15.84v36.72c-5.904 5.616-14.112 8.496-24.336 8.496-10.224 0-18.72-3.456-25.776-10.224-6.912-6.912-10.368-15.984-10.368-27.072s3.6-20.016 10.656-27.072c7.056-7.056 16.128-10.512 27.072-10.512 10.8 0 20.88 3.168 30.096 9.504V8.968c-8.496-5.76-18.864-8.64-31.104-8.64-15.12 0-27.792 4.896-37.872 14.832-10.08 9.792-15.12 22.32-15.12 37.44 0 15.12 5.04 27.648 14.976 37.584 10.08 9.792 22.608 14.688 37.44 14.688zM488.334 103l10.8-25.056h47.808L557.886 103h16.992L530.814 1.624H515.55L471.486 103h16.848zm34.704-81.36l18.432 42.336h-36.864l18.432-42.336z" fill="#fff"/></svg>