<svg xmlns="http://www.w3.org/2000/svg" xmlns:xlink="http://www.w3.org/1999/xlink"><symbol id="facebook-icon" viewBox="0 0 10 21">
<path d="M2.16145 4.06608C2.16145 4.59517 2.16145 6.9567 2.16145 6.9567H0V10.4914H2.16145V20.9951H6.60152V10.4916H9.58101C9.58101 10.4916 9.86005 8.79681 9.99532 6.94367C9.60752 6.94367 6.61831 6.94367 6.61831 6.94367C6.61831 6.94367 6.61831 4.88732 6.61831 4.52688C6.61831 4.16566 7.10241 3.67978 7.58088 3.67978C8.05846 3.67978 9.06642 3.67978 10 3.67978C10 3.19853 10 1.53571 10 1.26263e-08C8.7537 1.26263e-08 7.33582 1.26263e-08 6.71082 1.26263e-08C2.05169 -0.000244053 2.16145 3.53793 2.16145 4.06608Z"/>
</symbol><symbol id="humburger" viewBox="0 0 30 13">
<path d="M0 0.5H30M0 6.49948H30M0 12.5003H19.5" stroke="#8E80A9"/>
</symbol><symbol id="quotes" viewBox="0 0 27 23">
<path d="M0.76 11.28C0.76 6.64 2.30667 3.36 5.4 1.44C6.84 0.533331 8.41333 0.0533311 10.12 -4.76837e-06V7.52C8.57333 7.52 7.48 8.13333 6.84 9.36C6.62667 9.89333 6.46667 10.5333 6.36 11.28H12.04V22.48L0.76 22.96V11.28ZM15.72 11.28C15.72 6.69333 17.2933 3.41333 20.44 1.44C21.7733 0.586664 23.3467 0.106664 25.16 -4.76837e-06V7.52C23.5067 7.52 22.4133 8.13333 21.88 9.36C21.56 9.89333 21.4 10.5333 21.4 11.28H27V22.48L15.72 22.96V11.28Z" fill="#8E80A9" fill-opacity="0.39"/>
</symbol>
<symbol id="right-arrow" viewBox="0 0 9 13">
<path d="M1 1L8 6.5L1 12"  fill="none"/>
</symbol>
<symbol id="twitter-icon" viewBox="0 0 9 6">
<path d="M7.42326 2.49179C7.87518 2.45451 8.18173 2.24906 8.2997 1.9703C8.13668 2.07044 7.63064 2.17962 7.35116 2.07564C7.33747 2.00998 7.32217 1.94761 7.30714 1.8913C7.09419 1.10937 6.36508 0.479414 5.60111 0.555516C5.66292 0.53056 5.72561 0.507325 5.78812 0.486466C5.87221 0.456347 6.36559 0.376074 6.28789 0.201926C6.22242 0.04875 5.61962 0.317688 5.50612 0.352839C5.65595 0.296493 5.90373 0.199569 5.93028 0.0274048C5.70073 0.0588894 5.4754 0.167411 5.30129 0.325208C5.36414 0.257544 5.41183 0.175081 5.42195 0.0863332C4.80972 0.477449 4.45209 1.26597 4.16266 2.03086C3.9354 1.81062 3.73398 1.63718 3.55328 1.54087C3.04636 1.26904 2.44025 0.985412 1.48879 0.632216C1.45959 0.947006 1.64448 1.36557 2.17724 1.64391C2.06181 1.62846 1.85073 1.66294 1.68191 1.70337C1.75066 2.06399 1.97519 2.3611 2.58304 2.50477C2.30525 2.52311 2.16169 2.58632 2.03158 2.72257C2.1581 2.97338 2.46683 3.26856 3.02221 3.20797C2.40474 3.4741 2.77044 3.96695 3.27287 3.89344C2.41576 4.77874 1.06443 4.71367 0.288452 3.97321C2.31448 6.73391 6.71858 5.60589 7.3749 2.94681C7.86663 2.951 8.1557 2.77648 8.33494 2.58407C8.05163 2.63215 7.641 2.58247 7.42326 2.49179Z"/>
</symbol><symbol id="vk-icon" viewBox="0 0 8 5">
<path d="M7.35912 4.36695C7.34048 4.33329 7.22519 4.06309 6.6704 3.50774C6.08961 2.92621 6.16762 3.02064 6.86718 2.01512C7.29324 1.40274 7.46358 1.02877 7.41026 0.868892C7.35955 0.716497 7.04618 0.756699 7.04618 0.756699L6.00422 0.763244C6.00422 0.763244 5.92707 0.752025 5.86942 0.788955C5.81351 0.825417 5.77754 0.909561 5.77754 0.909561C5.77754 0.909561 5.6124 1.38357 5.39222 1.78653C4.92802 2.63685 4.74208 2.68173 4.66623 2.62891C4.48982 2.50596 4.53403 2.13433 4.53403 1.87067C4.53403 1.04653 4.64976 0.702941 4.30821 0.614122C4.19465 0.584671 4.11144 0.565038 3.82147 0.561766C3.44959 0.557558 3.13449 0.563168 2.95635 0.657129C2.83759 0.719769 2.74613 0.859542 2.80205 0.867489C2.87096 0.877306 3.027 0.912833 3.10978 1.03437C3.21684 1.19098 3.21294 1.54345 3.21294 1.54345C3.21294 1.54345 3.27448 2.51344 3.06947 2.63405C2.92861 2.71679 2.73573 2.54803 2.32181 1.77625C2.10986 1.38124 1.94949 0.944154 1.94949 0.944154C1.94949 0.944154 1.91872 0.862814 1.86367 0.81934C1.79692 0.766516 1.7033 0.749687 1.7033 0.749687L0.712486 0.756232C0.712486 0.756232 0.563819 0.760907 0.509207 0.830559C0.460663 0.892732 0.505306 1.02082 0.505306 1.02082C0.505306 1.02082 1.28114 2.9781 2.15927 3.96493C2.96502 4.86948 3.87955 4.81011 3.87955 4.81011H4.29391C4.29391 4.81011 4.41917 4.79515 4.48288 4.72082C4.54183 4.65257 4.53966 4.52449 4.53966 4.52449C4.53966 4.52449 4.53143 3.92472 4.78975 3.83637C5.04418 3.74942 5.37098 4.41603 5.71729 4.67267C5.97908 4.86667 6.17803 4.82413 6.17803 4.82413L7.10426 4.81011C7.10426 4.81011 7.58884 4.77785 7.35912 4.36695Z"/>
</symbol></svg>