<svg width="9" height="6" fill="none" xmlns="http://www.w3.org/2000/svg"><path d="M7.423 2.492c.452-.037.759-.243.877-.522-.163.1-.67.21-.949.106a3.442 3.442 0 00-.044-.185C7.094 1.11 6.365.48 5.601.556c.062-.025.125-.049.187-.07.084-.03.578-.11.5-.284-.066-.153-.668.116-.782.15.15-.056.398-.152.424-.325-.23.032-.455.14-.629.298a.433.433 0 00.12-.239c-.611.391-.969 1.18-1.258 1.945-.228-.22-.429-.394-.61-.49C3.046 1.269 2.44.985 1.49.632c-.03.315.155.734.688 1.012-.115-.016-.326.019-.495.06.069.36.293.657.901.8-.278.02-.421.082-.551.219.126.25.435.546.99.485-.617.266-.252.759.25.685a2.134 2.134 0 01-2.984.08c2.026 2.76 6.43 1.633 7.087-1.026.492.004.78-.17.96-.363a1.959 1.959 0 01-.912-.092z" fill="#8B7EAC"/></svg>