<svg width="8" height="5" fill="none" xmlns="http://www.w3.org/2000/svg"><path d="M7.36 4.367c-.02-.034-.135-.304-.69-.86-.58-.58-.502-.486.197-1.492.426-.612.597-.986.543-1.146-.05-.153-.364-.112-.364-.112L6.004.763S5.927.752 5.87.79c-.055.036-.091.12-.091.12s-.166.475-.386.878c-.464.85-.65.895-.726.842-.176-.123-.132-.495-.132-.758 0-.824.116-1.168-.226-1.257-.113-.03-.197-.049-.487-.052-.371-.004-.687.001-.865.095-.118.063-.21.203-.154.21.069.01.225.046.308.167.107.157.103.51.103.51s.061.97-.144 1.09c-.14.083-.333-.086-.747-.858A7.462 7.462 0 011.95.945S1.92.863 1.864.82c-.067-.052-.16-.07-.16-.07L.711.757S.564.761.51.831c-.048.062-.004.19-.004.19s.776 1.957 1.654 2.944c.806.904 1.72.845 1.72.845h.415s.125-.015.189-.09c.059-.067.057-.196.057-.196s-.009-.6.25-.688c.254-.087.581.58.927.837.262.194.461.151.461.151l.926-.014s.485-.032.255-.443z" fill="#8B7EAC"/></svg>